<?xml version="1.0" encoding="utf-8"?>
<!-- Generator: Adobe Illustrator 19.1.0, SVG Export Plug-In . SVG Version: 6.00 Build 0)  -->
<svg version="1.1" id="Calque_1" xmlns="http://www.w3.org/2000/svg" xmlns:xlink="http://www.w3.org/1999/xlink" x="0px" y="0px"
	 width="49.7px" height="49.7px" viewBox="-974 476.3 49.7 49.7" style="enable-background:new -974 476.3 49.7 49.7;"
	 xml:space="preserve">
<style type="text/css">
	.st0{fill:#FFFFFF;}
</style>
<g id="Capa_1">
	<g>
		<g>
			<path d="M-949.2,476.4c-13.7,0-24.8,11.1-24.8,24.8s11.1,24.8,24.8,24.8s24.8-11.1,24.8-24.8
				C-924.3,487.6-935.5,476.4-949.2,476.4z"/>
		</g>
	</g>
</g>
<g id="Calque_2">
	<path class="st0" d="M-938.8,511.2c-0.4,0.6-1.3,0.9-1.9,0.5c-5.3-3.3-12-4-19.8-2.2c-0.7,0.2-1.5-0.3-1.7-1.1
		c-0.2-0.7,0.3-1.5,1.1-1.7c8.6-2,16-1.1,21.9,2.5C-938.6,509.7-938.3,510.5-938.8,511.2z"/>
	<path class="st0" d="M-936,505.1c-0.5,0.8-1.6,1.1-2.4,0.5c-6.1-3.7-15.2-4.8-22.4-2.6c-0.9,0.3-1.9-0.3-2.2-1.2
		c-0.3-0.9,0.3-1.9,1.2-2.2c8.2-2.4,18.3-1.3,25.3,3C-935.8,503.2-935.5,504.2-936,505.1L-936,505.1z"/>
	<path class="st0" d="M-935.8,498.7c-7.3-4.4-19.2-4.7-26.1-2.6c-1.1,0.4-2.3-0.3-2.6-1.4c-0.4-1.1,0.3-2.3,1.4-2.6
		c8-2.4,21.1-1.9,29.6,3c1,0.6,1.4,1.9,0.7,2.9C-933.5,499-934.8,499.3-935.8,498.7L-935.8,498.7z"/>
</g>
</svg>
