<?xml version="1.0" encoding="utf-8"?>
<!-- Generator: Adobe Illustrator 19.2.0, SVG Export Plug-In . SVG Version: 6.00 Build 0)  -->
<svg version="1.1" id="Ebene_1" xmlns="http://www.w3.org/2000/svg" xmlns:xlink="http://www.w3.org/1999/xlink" x="0px" y="0px"
	 viewBox="0 0 302.8 67.3" style="enable-background:new 0 0 302.8 67.3;" xml:space="preserve">
<g>
	<polygon points="34.3,31.2 65.5,62.3 65.5,0 	"/>
	<polygon points="0,0 0,65.5 65.5,65.5 	"/>
</g>
<g>
	<g>
		<path d="M79.3,17.1V1.8h9.8V4h-7.5v3.8H86V10h-4.4v4.8h7.9V17L79.3,17.1L79.3,17.1z"/>
		<path d="M98,17.3c-2.2,0-4.1-1-5.4-2.5l1.6-1.6c1,1.1,2.5,1.8,4,1.8c2.1,0,3.2-0.7,3.2-2.2c0-1.2-0.9-1.8-3.4-2.5
			c-3.2-1-4.8-1.8-4.8-4.5c0-2.6,2.2-4.2,5-4.2c2.1,0,3.6,0.8,5,2.1l-1.6,1.6c-1-1-2-1.5-3.5-1.5c-1.8,0-2.5,0.9-2.5,1.9
			c0,1.1,0.7,1.6,3.3,2.4c3,0.9,4.9,1.9,4.9,4.6C103.6,15.4,101.9,17.3,98,17.3z"/>
		<path d="M113.7,11.4h-4v5.7h-2.2V1.8h6.4c2.8,0,4.9,1.6,4.9,4.8C118.8,9.7,116.7,11.4,113.7,11.4z M113.8,4h-4.1v5.2h4.1
			c1.7,0,2.6-1,2.6-2.6C116.4,4.9,115.4,4,113.8,4z"/>
		<path d="M131.2,17.1l-1.3-3.6h-6.1l-1.3,3.6h-2.4l5.5-15.2h2.4l5.5,15.2H131.2z M128,7.9c-0.4-1.1-1-2.9-1.2-3.5
			c-0.2,0.7-0.7,2.4-1.1,3.5l-1.2,3.5h4.7L128,7.9z"/>
		<path d="M142.2,17.3c-3.9,0-6.4-3.2-6.4-7.9s2.5-7.9,6.4-7.9c2.5,0,4.1,1,5.2,2.9l-2,1.3c-0.8-1.2-1.6-1.8-3.2-1.8
			c-2.7,0-4.1,2.2-4.1,5.6s1.4,5.6,4.1,5.6c1.6,0,2.6-0.7,3.3-1.9l1.9,1.3C146.4,16.3,144.5,17.3,142.2,17.3z"/>
		<path d="M151.1,17.1V1.8h9.8V4h-7.5v3.8h4.4V10h-4.4v4.8h7.9V17L151.1,17.1L151.1,17.1z"/>
		<path d="M176,17.3c-3.9,0-6.4-3.2-6.4-7.9s2.5-7.9,6.4-7.9c2.5,0,4.1,1,5.2,2.9l-2,1.3c-0.8-1.2-1.6-1.8-3.2-1.8
			c-2.7,0-4.1,2.2-4.1,5.6s1.4,5.6,4.1,5.6c1.6,0,2.6-0.7,3.3-1.9l1.9,1.3C180.2,16.3,178.3,17.3,176,17.3z"/>
		<path d="M190.5,17.3c-3.8,0-5.7-2.4-5.7-6.6V1.9h2.3v8.7c0,2.9,1.2,4.4,3.5,4.4c2.4,0,3.5-1.5,3.5-4.3V1.8h2.3v8.9
			C196.3,15,194.3,17.3,190.5,17.3z"/>
		<path d="M200.9,17.1V1.8h2.3v13h7.6V17L200.9,17.1L200.9,17.1z"/>
		<path d="M218.4,4.1v13h-2.3v-13h-4.4V1.9h11.2v2.2H218.4z"/>
		<path d="M231.9,17.3c-3.8,0-5.7-2.4-5.7-6.6V1.9h2.3v8.7c0,2.9,1.2,4.4,3.5,4.4c2.4,0,3.5-1.5,3.5-4.3V1.8h2.3v8.9
			C237.7,15,235.7,17.3,231.9,17.3z"/>
		<path d="M250.5,10.9l3.1,6.2H251l-3-6h-3.5v6h-2.2V1.8h6.7c2.6,0,4.9,1.4,4.9,4.5C253.8,8.8,252.6,10.3,250.5,10.9z M249,4h-4.5
			v4.9h4.4c1.5,0,2.6-0.8,2.6-2.4S250.5,4,249,4z"/>
		<path d="M257.9,17.1V1.8h9.8V4h-7.5v3.8h4.4V10h-4.4v4.8h7.8V17L257.9,17.1L257.9,17.1z"/>
		<path d="M271.6,17.1V1.8h2.3v13h7.6V17L271.6,17.1L271.6,17.1z"/>
	</g>
	<g>
		<path d="M79.3,41.8V26.6h2.3v13h7.6v2.2H79.3z"/>
		<path d="M92.7,41.8V26.6h9.8v2.2H95v3.8h4.4v2.2H95v4.8h7.8v2.2H92.7z"/>
		<path d="M121.3,41.8l-6.1-9.5c-0.4-0.6-0.9-1.5-1.1-1.9c0,0.6,0,2.7,0,3.5v7.9h-2.2V26.6h2.3l5.8,9.3c0.4,0.6,1,1.8,1.3,2.2
			c0-0.6,0-2.7,0-3.6v-7.9h2.2v15.2H121.3z"/>
		<path d="M133.8,42.1c-3.9,0-6.4-3.2-6.4-7.9c0-4.6,2.5-7.9,6.4-7.9c4,0,6.5,3.2,6.5,7.9C140.3,38.8,137.8,42.1,133.8,42.1z
			 M133.8,28.6c-2.7,0-4.1,2.1-4.1,5.6c0,3.4,1.5,5.6,4.1,5.6c2.7,0,4.1-2.2,4.1-5.6C138,30.8,136.5,28.6,133.8,28.6z"/>
		<path d="M149.8,42.1c-3.8,0-5.7-2.4-5.7-6.6v-8.9h2.3v8.8c0,2.9,1.2,4.4,3.5,4.4c2.4,0,3.5-1.5,3.5-4.3v-8.9h2.3v8.9
			C155.7,39.7,153.6,42.1,149.8,42.1z"/>
		<path d="M166.7,41.8h-2.4L159,26.6h2.5l3.2,9.7c0.3,0.9,0.7,2.2,0.8,2.8c0.1-0.5,0.6-1.9,0.9-2.8l3.1-9.7h2.4L166.7,41.8z"/>
		<path d="M175.4,41.8V26.6h9.8v2.2h-7.5v3.8h4.4v2.2h-4.4v4.8h7.8v2.2H175.4z"/>
		<path d="M199.6,41.8l-1.3-3.6h-6.1l-1.3,3.6h-2.4l5.5-15.2h2.4l5.5,15.2H199.6z M196.4,32.7c-0.4-1.1-1-2.9-1.1-3.5
			c-0.2,0.7-0.7,2.4-1.1,3.5l-1.2,3.5h4.7L196.4,32.7z"/>
		<path d="M210.5,42.1c-3.8,0-5.7-2.4-5.7-6.6v-8.9h2.3v8.8c0,2.9,1.2,4.4,3.5,4.4c2.4,0,3.5-1.5,3.5-4.3v-8.9h2.3v8.9
			C216.3,39.7,214.3,42.1,210.5,42.1z"/>
		<path d="M237.4,41.8v-8c0-0.9,0-2.2,0-2.7c-0.2,0.4-0.6,1.5-1,2.4l-3.7,8.6l-3.6-8.6c-0.4-0.9-0.8-2-1-2.4c0,0.4,0,1.8,0,2.7v8
			h-2.2V26.6h2.3l3.4,8.1c0.4,0.9,0.8,2,1,2.6c0.2-0.6,0.6-1.7,1-2.6l3.3-8.1h2.4v15.2H237.4z"/>
		<path d="M250,42.1c-3.9,0-6.4-3.2-6.4-7.9c0-4.6,2.5-7.9,6.4-7.9c4,0,6.5,3.2,6.5,7.9C256.5,38.8,254,42.1,250,42.1z M250,28.6
			c-2.7,0-4.1,2.1-4.1,5.6c0,3.4,1.5,5.6,4.1,5.6c2.7,0,4.1-2.2,4.1-5.6C254.2,30.8,252.7,28.6,250,28.6z"/>
		<path d="M269.8,41.8l-6.1-9.5c-0.4-0.6-0.9-1.5-1.1-1.9c0,0.6,0,2.7,0,3.5v7.9h-2.2V26.6h2.3l5.8,9.3c0.4,0.6,1,1.8,1.3,2.2
			c0-0.6,0-2.7,0-3.6v-7.9h2.2v15.2H269.8z"/>
		<path d="M280.8,41.8h-4.2V26.6h4.2c4.1,0,7.4,2.2,7.4,7.6C288.2,39.6,284.8,41.8,280.8,41.8z M280.8,28.8h-1.9v10.8h1.9
			c3.6,0,5.1-2.2,5.1-5.4C285.9,31,284.4,28.8,280.8,28.8z"/>
		<path d="M292.1,41.8V26.6h9.8v2.2h-7.5v3.8h4.4v2.2h-4.4v4.8h7.9v2.2H292.1z"/>
	</g>
	<g>
		<path d="M81.6,53.6v4H86v2.2h-4.4v6.8h-2.3V51.3h9.8v2.3H81.6z"/>
		<path d="M100.7,60.3l3.1,6.2h-2.6l-3-6h-3.4v6h-2.3V51.3h6.7c2.7,0,4.9,1.4,4.9,4.5C104.1,58.3,102.8,59.8,100.7,60.3z M99.2,53.5
			h-4.4v4.9h4.4c1.5,0,2.6-0.8,2.6-2.4C101.8,54.4,100.7,53.5,99.2,53.5z"/>
		<path d="M108.1,66.6V51.3h2.3v15.3H108.1z"/>
		<path d="M121.1,66.6h-6V51.3h6.3c2.7,0,4.4,1.4,4.4,4c0,1.6-0.8,2.5-1.9,3c1.2,0.3,2.6,1.4,2.6,3.5
			C126.3,65,124.4,66.6,121.1,66.6z M121.3,53.4h-4.1v3.9h4.1c1.5,0,2.1-0.9,2.1-1.9C123.4,54.3,122.8,53.4,121.3,53.4z M121.3,59.4
			h-4.1v5h4.1c2,0,2.8-1,2.8-2.5C124,60.4,123.1,59.4,121.3,59.4z"/>
		<path d="M136,66.8c-3.9,0-6.4-3.2-6.4-7.9c0-4.6,2.5-7.9,6.4-7.9c4,0,6.5,3.2,6.5,7.9C142.4,63.6,139.9,66.8,136,66.8z M136,53.4
			c-2.6,0-4.1,2.2-4.1,5.6s1.5,5.6,4.1,5.6c2.7,0,4.1-2.1,4.1-5.6S138.7,53.4,136,53.4z"/>
		<path d="M151.9,66.8c-3.8,0-5.7-2.4-5.7-6.6v-8.8h2.3v8.8c0,2.9,1.2,4.4,3.5,4.4c2.4,0,3.5-1.5,3.5-4.3v-8.9h2.3v8.9
			C157.8,64.5,155.7,66.8,151.9,66.8z"/>
		<path d="M170.5,60.3l3.1,6.2H171l-3-6h-3.4v6h-2.2V51.3h6.7c2.6,0,4.9,1.4,4.9,4.5C173.9,58.3,172.6,59.8,170.5,60.3z M169,53.5
			h-4.4v4.9h4.4c1.5,0,2.6-0.8,2.6-2.4S170.5,53.5,169,53.5z"/>
		<path d="M183.6,66.8c-3.9,0-6.4-3.2-6.4-7.9c0-4.6,2.5-7.9,6.4-7.9c2.5,0,4.1,1,5.2,2.9l-2,1.2c-0.8-1.2-1.6-1.8-3.2-1.8
			c-2.7,0-4.1,2.2-4.1,5.6s1.5,5.6,4.1,5.6c2.5,0,3.5-1.6,3.5-3.4V61h-2.6v-2.2h4.8v1.8C189.4,64.5,187,66.8,183.6,66.8z"/>
	</g>
</g>
</svg>
