<?xml version="1.0" encoding="utf-8"?>
<!-- Generator: Adobe Illustrator 19.2.0, SVG Export Plug-In . SVG Version: 6.00 Build 0)  -->
<svg version="1.1" id="Calque_1" xmlns="http://www.w3.org/2000/svg" xmlns:xlink="http://www.w3.org/1999/xlink" x="0px" y="0px"
	 viewBox="0 0 208 42" style="enable-background:new 0 0 208 42;" xml:space="preserve">
<g id="Calque_1_1_">
	<g>
		<path d="M22.5,2.1C11.7,2.1,3,10.1,3,20.8c-0.1,8.4,5.1,15,12.4,17.6l4.7-4.8c-5.7-1.1-9.9-6.2-9.9-12.7c0-7.5,5.7-12.7,12.5-12.7
			c7,0,12.5,5.3,12.5,12.7c0,6.7-4.3,11.5-9.9,12.7l4.8,5C37.4,36,42.5,29.3,42.5,21C42.1,10.1,33.3,2.1,22.5,2.1z"/>
		<path d="M22.7,40c10.9,0,19.7-8,19.7-18.9C42.5,12.7,37.3,6,29.9,3.4l-4.5,4.8c5.7,1.1,10,6.2,10,12.8c0,7.5-5.7,12.8-12.6,12.8
			c-6.9,0.1-12.5-5.2-12.5-12.7c0-6.7,4.2-11.7,9.9-13l-4.7-4.9C8.1,6,2.9,12.7,2.9,21.1C2.9,32.1,11.7,40,22.7,40z"/>
		<path d="M93.3,5.2c0,0.8,0,34.8,0,34.8h-7.2c0,0,0-34.1,0-34.8C86.2,3,87.6,2,89.7,2C91.8,2.1,93.3,3.1,93.3,5.2z"/>
		<path d="M186.9,2c-10.8,0-19.5,8-19.5,19s8.6,19.1,19.5,19.1c3.6,0,7.2-0.9,10.1-2.6v-8.6c-2.3,3.2-5.9,5.2-10.1,5.2
			c-6.8,0-12.4-5.5-12.4-13.1c0-7.5,5.6-13,12.4-13c6.9,0,12.5,5.3,12.5,13c0,0,0,19,0,19.1h6.6c0,0,0-12.8,0-19.1
			C206,9.9,197.7,2,186.9,2z"/>
		<polygon points="80.4,35 48.6,1.9 43.4,6.8 75.3,40 		"/>
		<polygon points="80.1,6.8 74.9,1.9 63.6,14.3 68.4,19.4 		"/>
		<polygon points="44,35.2 49.2,40 60.5,27.8 55.6,22.7 		"/>
		<path d="M134.6,21.1c0-11-6.4-19.1-17.2-19.1s-17.7,8-17.7,19c0,6.2,0,19.1,0,19.1h7.2V21c0-7.6,3.7-13,10.6-13s10.1,5.5,10.1,13"
			/>
		<path d="M144.6,2c-10.8,0-17.2,8-17.2,19c0,6.2,0,19.1,0,19.1h7V21c0-7.5,3.2-13,10-13c6.9,0,10.7,5.3,10.7,13v19.1h7.2
			c0,0,0-13,0-19.1C162.5,9.9,155.5,2,144.6,2z"/>
	</g>
</g>
</svg>
