<?xml version="1.0" encoding="utf-8"?>
<!-- Generator: Adobe Illustrator 19.1.0, SVG Export Plug-In . SVG Version: 6.00 Build 0)  -->
<svg version="1.1" id="Calque_1" xmlns="http://www.w3.org/2000/svg" xmlns:xlink="http://www.w3.org/1999/xlink" x="0px" y="0px"
	 viewBox="79.3 5 150 42" style="enable-background:new 79.3 5 150 42;" xml:space="preserve">
<path d="M130.6,41.4c0.2,0,1.1-0.4,2.4-1.1l0.6-0.3l1.1,2.1c-0.3,0.3-0.8,0.7-1.3,1.2c-0.5,0.4-1.6,1.1-3.1,1.8
	c-1.5,0.8-3,1.2-4.3,1.2c-1.4,0-2.5-0.4-3.3-1.1c-0.8-0.7-1.5-1.9-2-3.5l-1.4-4.3c-3,3.3-5.3,6.2-6.8,8.8c-0.3,0-1-0.2-2.1-0.6
	s-1.9-0.8-2.5-1c1.2-2.1,4.6-5.7,10.2-11c-1.4-4.3-2.6-7.2-3.4-8.9c-0.2-0.3-1.1-1.5-2.9-3.5l0.2-0.7l3.7-0.8
	c2.2-0.3,4.1-0.5,5.7-0.6c0.9,0.7,1.5,2,2,3.8c0.5,1.9,0.9,3.3,1.2,4.3c3-3.3,5-6,5.9-8.3c1.1,0.2,2.3,0.6,3.3,1.3l0.5,0.3
	c-1.4,2.7-4.3,6.2-8.6,10.5c0.4,1.5,0.9,2.8,1.2,3.8C128.6,39.2,129.8,41.4,130.6,41.4z"/>
<path d="M149.3,22.4c0,1.7-0.5,4.6-1.6,8.8c-1.1,4.2-1.6,6.9-1.6,8.2c0,1.3,0.2,1.9,0.5,1.9c0.2,0,1.2-0.4,2.8-1.2l0.7-0.4l1,2.1
	c-0.4,0.3-0.9,0.7-1.5,1.2c-0.6,0.5-1.7,1.1-3.4,2c-1.7,0.8-3.2,1.2-4.6,1.2s-2.5-0.4-3.3-1.3c-0.8-0.9-1.2-2-1.2-3.5
	s0.5-4.1,1.5-7.9s1.5-6.3,1.5-7.4c0-1.7-0.5-3.3-1.6-4.8l-0.5-0.7l0.1-0.8c2.2-0.6,5.6-0.9,10.5-0.9C149,19.5,149.3,20.7,149.3,22.4
	z"/>
<path d="M154.9,45.8h-1.2c0-1.9,0.6-5.6,1.7-11c1.2-5.4,1.7-8.5,1.7-9.2c0-1.3-0.6-2.8-1.7-4.3l-0.5-0.7l0.1-0.8
	c2.2-0.6,5.7-0.9,10.5-0.9c0.6,0.8,0.9,2,0.9,3.8c3.7-2.7,6.6-4.1,8.7-4.1c2.7,0,4.3,1.4,4.8,4.2c1.1-0.9,2.5-1.8,4.3-2.8
	s3.3-1.4,4.7-1.4s2.6,0.5,3.5,1.4c0.9,0.9,1.4,2.2,1.4,3.8c0,1.6-0.4,4.3-1.3,8c-0.9,3.7-1.3,6.2-1.3,7.5s0.2,1.9,0.5,1.9
	c0.2,0,1.1-0.4,2.5-1.2l0.7-0.4l1.1,2.1c-1.1,1.1-2.5,2.1-4.3,3c-1.8,1-3.4,1.4-4.8,1.4c-3,0-4.6-1.7-4.6-5.2c0-1.3,0.4-3.8,1.3-7.6
	c0.9-3.8,1.3-6.3,1.3-7.4c0-1.2-0.3-1.7-1-1.7c-1.2,0-2.5,0.4-4,1.3c-0.1,0.8-0.6,3.6-1.7,8.3c-1,4.7-1.6,8.4-1.6,11
	c-1.2,0.5-3.9,0.8-8.3,0.8c-0.1-0.4-0.1-1.5-0.1-3.2s0.5-4.6,1.4-8.7c1-4.1,1.4-6.7,1.4-7.8c0-1.1-0.4-1.6-1.2-1.6
	c-1.2,0-2.6,0.5-4,1.5c-0.1,0.4-0.5,2.2-1.2,5.4c-1.5,6.4-2.2,11-2.2,13.7C161.1,45.5,158.5,45.8,154.9,45.8z"/>
<path d="M216,20.4c0.1-0.1,0.3-0.6,0.7-1.6c1.9,0,4.5,0.6,7.7,1.7c-1,3.4-1.8,6.9-2.4,10.6c-0.6,3.7-0.9,6.3-0.9,7.9
	s0.2,2.3,0.5,2.3c0.2,0,1.1-0.4,2.7-1.2l0.7-0.4l1.1,2.1c-0.4,0.3-0.8,0.7-1.4,1.2c-0.6,0.5-1.7,1.1-3.3,2c-1.6,0.8-3.1,1.2-4.4,1.2
	c-2.5,0-4-1.1-4.4-3.4c-2.6,2.3-4.9,3.4-7,3.4c-2.1,0-3.9-0.8-5.3-2.4c-1.4-1.6-2.2-4.2-2.2-7.7c0-5.4,1.1-9.7,3.3-12.9
	c2.2-3.1,4.9-4.7,8.1-4.7C211.7,18.6,213.9,19.2,216,20.4z M209.1,41.1c1,0,2.1-0.4,3.3-1.2c0.3-5.7,1.2-11.4,2.9-17
	c-1.2-0.5-2.3-0.8-3.1-0.8c-1.5,0-2.7,1.4-3.7,4.3s-1.6,6-1.6,9.5C206.8,39.4,207.6,41.1,209.1,41.1z"/>
<path d="M142.8,13c-0.7-0.7-1.1-1.6-1.1-2.8c0-1.2,0.5-2.2,1.5-3.1s2.1-1.3,3.4-1.3s2.3,0.4,3,1.1s1.1,1.6,1.1,2.8
	c0,1.2-0.5,2.2-1.5,3.1s-2.1,1.3-3.4,1.3C144.5,14,143.5,13.7,142.8,13z"/>
<g>
	<path d="M88.4,29.8c0.1-0.5,0.3-0.9,0.5-1.3c0.5-1,1.1-1.8,1.8-2.5l-5.3-5.7c-2.1,1.7-3.6,3.9-4.6,6.4L88.4,29.8z"/>
	<path d="M92.4,24.8c1.2-0.7,2.4-1.1,3.7-1.1l0.3-6.6C95.8,17,95.2,17,94.6,17c-1.8,0-3.4,0.3-5,0.9L92.4,24.8z"/>
	<path d="M100.4,18.2l-2.7,5.7c0.3,0.1,0.7,0.2,1,0.4c3.4,1.7,4.5,6.3,2.5,10.3s-6.4,5.9-9.7,4.2c-2.3-1.2-3.6-3.8-3.4-6.6L80,32.3
		c0.4,7.8,6.8,14,14.6,14c8.1,0,14.6-6.6,14.6-14.6C109.2,25.6,105.6,20.5,100.4,18.2z"/>
</g>
</svg>
