<?xml version="1.0" encoding="utf-8"?>
<!-- Generator: Adobe Illustrator 19.2.0, SVG Export Plug-In . SVG Version: 6.00 Build 0)  -->
<svg version="1.1" id="Calque_1" xmlns="http://www.w3.org/2000/svg" xmlns:xlink="http://www.w3.org/1999/xlink" x="0px" y="0px"
	 viewBox="0 0 200 215.7" style="enable-background:new 0 0 200 215.7;" xml:space="preserve">
<g>
	<path d="M0.8,67.8c0,16.8,6.2,32.1,16.4,43.9L65.4,0.8C29.5,2.1,0.8,31.6,0.8,67.8"/>
	<path d="M20.4,115.2c12.1,12.1,28.9,19.6,47.4,19.6c18.5,0,35.3-7.5,47.4-19.6L67.8,6.2L20.4,115.2z"/>
	<path d="M134.7,64.1h-37l20.7,47.6c10.2-11.8,16.4-27.1,16.4-43.9C134.8,66.6,134.8,65.3,134.7,64.1"/>
	<path d="M6.4,167.5c-3.4,0-5.6-2.8-5.6-6.8c0-4,2.2-6.8,5.6-6.8c2.2,0,3.6,0.9,4.5,2.5l-1.8,1.1c-0.7-1.1-1.4-1.6-2.7-1.6
		c-2.3,0-3.5,1.9-3.5,4.8c0,3,1.2,4.8,3.5,4.8c1.4,0,2.2-0.6,2.9-1.6l1.6,1.1C10,166.6,8.4,167.5,6.4,167.5"/>
	<path d="M22.8,167.3l-1.1-3.1h-5.3l-1.1,3.1h-2.1l4.8-13.2h2.1l4.8,13.2H22.8z M20.1,159.3c-0.3-0.9-0.8-2.5-1-3
		c-0.1,0.6-0.6,2.1-1,3.1l-1.1,3h4.1L20.1,159.3z"/>
	<polygon points="29.9,156 29.9,159.5 33.7,159.5 33.7,161.4 29.9,161.4 29.9,167.3 27.9,167.3 27.9,154.1 36.5,154.1 36.5,156 	"/>
	<path d="M39.4,167.3v-13.2h8.5v1.9h-6.5v3.3h3.8v1.9h-3.8v4.2h6.8v1.9H39.4z M43.9,153.2h-1.5l2-3H47L43.9,153.2z"/>
	<path d="M61.1,167.5c-3.4,0-5.6-2.8-5.6-6.8c0-4,2.2-6.8,5.6-6.8c2.2,0,3.6,0.9,4.5,2.5l-1.8,1.1c-0.7-1.1-1.4-1.6-2.7-1.6
		c-2.3,0-3.6,1.9-3.6,4.8c0,3,1.2,4.8,3.6,4.8c1.4,0,2.2-0.6,2.9-1.6l1.7,1.1C64.7,166.6,63.1,167.5,61.1,167.5"/>
	<path d="M73.6,167.5c-3.3,0-5-2.1-5-5.8v-7.7h2v7.6c0,2.5,1,3.8,3,3.8c2.1,0,3.1-1.3,3.1-3.7v-7.7h2v7.7
		C78.7,165.5,76.9,167.5,73.6,167.5"/>
	<polygon points="82.6,167.3 82.6,154.1 84.6,154.1 84.6,165.3 91.2,165.3 91.2,167.3 	"/>
	<polygon points="97.9,156 97.9,167.3 95.9,167.3 95.9,156 92,156 92,154.1 101.7,154.1 101.7,156 	"/>
	<path d="M109.6,167.5c-3.3,0-5-2.1-5-5.8v-7.7h2v7.6c0,2.5,1,3.8,3,3.8c2.1,0,3.1-1.3,3.1-3.7v-7.7h2v7.7
		C114.7,165.5,112.9,167.5,109.6,167.5"/>
	<path d="M125.8,161.9l2.7,5.4h-2.3l-2.6-5.2h-3v5.2h-1.9v-13.2h5.8c2.3,0,4.2,1.2,4.2,4C128.7,160.1,127.6,161.4,125.8,161.9
		 M124.4,155.9h-3.9v4.3h3.9c1.3,0,2.2-0.7,2.2-2.1C126.7,156.7,125.8,155.9,124.4,155.9"/>
	<polygon points="132.2,167.3 132.2,154.1 140.7,154.1 140.7,156 134.2,156 134.2,159.3 138,159.3 138,161.2 134.2,161.2 
		134.2,165.4 141,165.4 141,167.3 	"/>
	<polygon points="144.1,167.3 144.1,154.1 146.1,154.1 146.1,165.3 152.7,165.3 152.7,167.3 	"/>
	<path d="M4.4,188.8H0.8v-13.2h3.6c3.5,0,6.4,1.9,6.4,6.6C10.8,186.9,7.9,188.8,4.4,188.8 M4.4,177.5H2.8v9.4h1.6
		c3.1,0,4.4-1.9,4.4-4.7C8.8,179.4,7.5,177.5,4.4,177.5"/>
	<polygon points="14.2,188.8 14.2,175.6 22.7,175.6 22.7,177.5 16.2,177.5 16.2,180.8 20,180.8 20,182.7 16.2,182.7 16.2,186.9 
		23,186.9 23,188.8 	"/>
	<polygon points="30.9,188.8 30.9,175.6 32.9,175.6 32.9,186.9 39.5,186.9 39.5,188.8 	"/>
	<polygon points="41.2,180.3 39.8,180.3 40.1,175.6 42.6,175.6 	"/>
	<path d="M53.3,188.8l-1.1-3.1h-5.3l-1.1,3.1h-2.1l4.8-13.2h2.1l4.8,13.2H53.3z M50.5,180.9c-0.3-1-0.8-2.5-1-3
		c-0.2,0.6-0.6,2.1-1,3.1l-1.1,3h4.1L50.5,180.9z"/>
	<path d="M66.5,188.8l-5.3-8.3c-0.3-0.5-0.8-1.3-1-1.6c0,0.5,0,2.3,0,3.1v6.9h-1.9v-13.2h2l5,8.1c0.3,0.5,0.9,1.5,1.1,1.9
		c0-0.5,0-2.4,0-3.1v-6.8h1.9v13.2H66.5z"/>
	<path d="M77.4,189c-3.4,0-5.6-2.8-5.6-6.8c0-4,2.2-6.8,5.6-6.8c2.2,0,3.6,0.9,4.5,2.5l-1.8,1.1c-0.7-1.1-1.4-1.6-2.7-1.6
		c-2.3,0-3.5,1.9-3.5,4.8s1.2,4.8,3.5,4.8c1.4,0,2.2-0.6,2.9-1.6l1.6,1.1C81,188.1,79.4,189,77.4,189"/>
	<rect x="85.1" y="175.6" width="2" height="13.2"/>
	<polygon points="91.2,188.8 91.2,175.6 99.7,175.6 99.7,177.5 93.1,177.5 93.1,180.8 96.9,180.8 96.9,182.7 93.1,182.7 93.1,186.9 
		100,186.9 100,188.8 	"/>
	<path d="M111.2,188.8l-5.3-8.3c-0.3-0.5-0.8-1.3-1-1.6c0,0.5,0,2.3,0,3.1v6.9H103v-13.2h2l5,8.1c0.3,0.5,0.9,1.5,1.1,1.9
		c0-0.5,0-2.4,0-3.1v-6.8h1.9v13.2H111.2z"/>
	<path d="M125.3,188.8l-5.3-8.3c-0.3-0.5-0.8-1.3-1-1.6c0,0.5,0,2.3,0,3.1v6.9h-1.9v-13.2h2l5,8.1c0.3,0.5,0.9,1.5,1.1,1.9
		c0-0.5,0-2.4,0-3.1v-6.8h1.9v13.2H125.3z"/>
	<polygon points="131.2,188.8 131.2,175.6 139.7,175.6 139.7,177.5 133.2,177.5 133.2,180.8 137,180.8 137,182.7 133.2,182.7 
		133.2,186.9 140,186.9 140,188.8 	"/>
	<path d="M152.9,189c-3.4,0-5.6-2.8-5.6-6.8c0-4,2.2-6.8,5.6-6.8c2.2,0,3.6,0.9,4.5,2.5l-1.7,1.1c-0.7-1.1-1.4-1.6-2.8-1.6
		c-2.3,0-3.6,1.9-3.6,4.8s1.3,4.8,3.6,4.8c2.2,0,3-1.4,3-3V184h-2.2v-1.9h4.2v1.5C157.9,187,155.8,189,152.9,189"/>
	<path d="M169.5,188.8l-1.1-3.1h-5.3l-1.1,3.1H160l4.8-13.2h2.1l4.8,13.2H169.5z M166.8,180.9c-0.3-1-0.8-2.5-1-3
		c-0.2,0.6-0.6,2.1-1,3.1l-1.1,3h4.1L166.8,180.9z"/>
	<path d="M181.8,183.4l2.7,5.4h-2.3l-2.6-5.2h-3v5.2h-1.9v-13.2h5.8c2.3,0,4.3,1.2,4.3,4C184.7,181.6,183.6,182.9,181.8,183.4
		 M180.4,177.5h-3.9v4.3h3.9c1.3,0,2.3-0.7,2.3-2.1C182.7,178.2,181.8,177.5,180.4,177.5"/>
	<polygon points="188.2,188.8 188.2,175.6 196.7,175.6 196.7,177.5 190.2,177.5 190.2,180.8 194,180.8 194,182.7 190.2,182.7 
		190.2,186.9 197,186.9 197,188.8 	"/>
	<polygon points="2.8,199 2.8,202.5 6.6,202.5 6.6,204.4 2.8,204.4 2.8,210.3 0.8,210.3 0.8,197.1 9.3,197.1 9.3,199 	"/>
	<path d="M19.4,204.9l2.7,5.4h-2.3l-2.6-5.2h-3v5.2h-1.9v-13.2H18c2.3,0,4.2,1.2,4.2,4C22.3,203.1,21.2,204.5,19.4,204.9 M18,199
		h-3.9v4.2H18c1.3,0,2.2-0.7,2.2-2.1C20.3,199.7,19.4,199,18,199"/>
	<rect x="25.8" y="197.1" width="2" height="13.2"/>
	<path d="M37.1,210.3h-5.3v-13.2h5.4c2.3,0,3.8,1.2,3.8,3.4c0,1.3-0.7,2.2-1.7,2.6c1,0.3,2.2,1.2,2.2,3.1
		C41.6,208.9,40,210.3,37.1,210.3 M37.3,198.9h-3.6v3.4h3.6c1.3,0,1.8-0.8,1.8-1.7C39.1,199.7,38.6,198.9,37.3,198.9 M37.3,204.1
		h-3.6v4.4h3.5c1.8,0,2.4-0.9,2.4-2.2C39.6,204.9,38.8,204.1,37.3,204.1"/>
	<path d="M50,210.5c-3.4,0-5.6-2.8-5.6-6.8c0-4,2.2-6.8,5.6-6.8c3.4,0,5.6,2.8,5.6,6.8C55.6,207.7,53.4,210.5,50,210.5 M50,198.9
		c-2.3,0-3.6,1.9-3.6,4.8c0,3,1.3,4.8,3.6,4.8c2.3,0,3.6-1.9,3.6-4.8C53.6,200.7,52.3,198.9,50,198.9"/>
	<path d="M63.9,210.5c-3.3,0-5-2.1-5-5.8v-7.7h2v7.6c0,2.5,1,3.8,3,3.8c2.1,0,3.1-1.3,3.1-3.7v-7.8h2v7.7
		C69,208.5,67.2,210.5,63.9,210.5"/>
	<path d="M80,204.9l2.7,5.4h-2.3l-2.6-5.2h-3v5.2h-1.9v-13.2h5.8c2.3,0,4.2,1.2,4.2,4C82.9,203.1,81.8,204.5,80,204.9 M78.7,199
		h-3.9v4.2h3.9c1.3,0,2.2-0.7,2.2-2.1C80.9,199.7,80,199,78.7,199"/>
	<path d="M91.4,210.5c-3.4,0-5.6-2.8-5.6-6.8c0-4,2.2-6.8,5.6-6.8c2.1,0,3.6,0.9,4.5,2.5l-1.7,1.1c-0.7-1.1-1.4-1.6-2.8-1.6
		c-2.3,0-3.6,1.9-3.6,4.8c0,3,1.3,4.8,3.6,4.8c2.1,0,3-1.4,3-3v-0.1h-2.2v-1.9h4.2v1.5C96.4,208.5,94.3,210.5,91.4,210.5"/>
</g>
</svg>
