<?xml version="1.0" encoding="utf-8"?>
<!-- Generator: Adobe Illustrator 19.2.0, SVG Export Plug-In . SVG Version: 6.00 Build 0)  -->
<svg version="1.1" id="Calque_1" xmlns="http://www.w3.org/2000/svg" xmlns:xlink="http://www.w3.org/1999/xlink" x="0px" y="0px"
	 viewBox="0 0 500 200" style="enable-background:new 0 0 500 200;" xml:space="preserve">
<g>
	<path id="Festival_International_de_Films_de_Fribourg" d="M131,121.9h-7.6v6.3h6.6v3.4h-6.6v9h-4.7v-22.1h12.8L131,121.9z
		 M150.4,133.5h-10.6c0.3,3.3,1.9,4.2,4,4.2c1.4,0,2.6-0.4,4.1-1.5l1.9,2.6c-1.7,1.3-3.8,2.3-6.4,2.3c-5.4,0-8.3-3.6-8.3-8.9
		c0-5.1,2.7-9.1,7.7-9.1c4.8,0,7.6,3.2,7.6,8.6C150.5,132.3,150.4,133,150.4,133.5z M146,130.5c0-2.6-0.9-4.2-3-4.2
		c-1.8,0-2.9,1.2-3.1,4.4h6.2V130.5z M168.3,125.2l-1.7,2.6c-1.4-0.9-2.7-1.3-4.2-1.3c-1.5,0-2.3,0.6-2.3,1.5c0,1,0.6,1.4,3.5,2.3
		c3.4,0.9,5.3,2.3,5.3,5.3c0,3.5-3.3,5.5-7.3,5.5c-2.9,0-5.3-1-6.9-2.5l2.2-2.5c1.3,1,2.8,1.7,4.5,1.7c1.7,0,2.8-0.7,2.8-1.9
		c0-1.3-0.6-1.7-3.7-2.6c-3.4-1-5-2.6-5-5.2c0-2.9,2.6-5,6.7-5C164.6,123.2,166.7,123.9,168.3,125.2z M185.3,139.8
		c-1.2,0.9-2.9,1.3-4.4,1.3c-3.5,0-5.3-2-5.3-5.8v-8.4h-2.5v-3.2h2.5V120l4.5-0.5v4.2h3.9l-0.4,3.2h-3.4v8.3c0,1.7,0.5,2.3,1.7,2.3
		c0.6,0,1.2-0.2,1.9-0.6L185.3,139.8z M195.7,117.6c0,1.5-1.1,2.6-2.8,2.6s-2.7-1.2-2.7-2.6c0-1.5,1.1-2.6,2.7-2.6
		S195.7,116.1,195.7,117.6z M195.2,140.6h-4.5v-16.9h4.5V140.6z M211.6,140.6h-5.4l-5.5-16.9h4.9L209,137l3.4-13.4h4.7L211.6,140.6z
		 M236.7,138l-1,3c-1.9-0.2-3.2-0.8-3.9-2.5c-1.2,1.8-3.1,2.5-5.1,2.5c-3.4,0-5.5-2.2-5.5-5.2c0-3.7,2.8-5.7,7.8-5.7h1.9v-0.8
		c0-2.1-0.9-2.8-3-2.8c-1.1,0-2.7,0.3-4.5,0.9l-1-3c2.1-0.8,4.3-1.2,6.3-1.2c4.7,0,6.7,2.1,6.7,5.9v6.8
		C235.5,137.3,235.9,137.7,236.7,138z M231,135.9v-3.2h-1.5c-2.5,0-3.7,0.9-3.7,2.7c0,1.5,0.8,2.4,2.2,2.4
		C229.3,137.8,230.3,137.2,231,135.9z M243.2,136.5v-19.6l4.5-0.5v19.9c0,0.7,0.3,1.1,0.9,1.1c0.3,0,0.6-0.1,0.9-0.2l0.9,3.2
		c-0.7,0.3-1.8,0.6-2.9,0.6C244.8,141.1,243.2,139.4,243.2,136.5z M272.1,140.6h-4.7v-22.1h4.7V140.6z M294.2,128.3v12.3h-4.5V129
		c0-1.9-0.7-2.5-1.8-2.5c-1.3,0-2.3,0.9-3.3,2.4v11.7H280v-16.9h3.9l0.4,2.1c1.4-1.7,3-2.6,5.2-2.6
		C292.4,123.2,294.2,125.1,294.2,128.3z M311.9,139.8c-1.2,0.9-2.9,1.3-4.4,1.3c-3.5,0-5.3-2-5.3-5.8v-8.4h-2.5v-3.2h2.5V120
		l4.5-0.5v4.2h3.9l-0.4,3.2h-3.4v8.3c0,1.7,0.5,2.3,1.7,2.3c0.6,0,1.2-0.2,1.9-0.6L311.9,139.8z M331.2,133.5h-10.6
		c0.3,3.3,1.8,4.2,4,4.2c1.4,0,2.6-0.4,4.1-1.5l1.9,2.6c-1.7,1.3-3.8,2.3-6.4,2.3c-5.4,0-8.3-3.6-8.3-8.9c0-5.1,2.7-9.1,7.7-9.1
		c4.8,0,7.6,3.2,7.6,8.6C331.3,132.3,331.2,133,331.2,133.5z M326.8,130.5c0-2.6-0.9-4.2-3-4.2c-1.8,0-2.9,1.2-3.1,4.4h6.2V130.5z
		 M347.1,123.4l-0.8,4.4c-0.5-0.1-0.9-0.2-1.5-0.2c-2.1,0-3,1.5-3.6,4.3v8.7h-4.5v-16.9h3.9l0.4,3.3c0.8-2.4,2.4-3.8,4.4-3.8
		C346,123.2,346.5,123.3,347.1,123.4z M366.2,128.3v12.3h-4.5V129c0-1.9-0.7-2.5-1.8-2.5c-1.3,0-2.3,0.9-3.3,2.4v11.7H352v-16.9h3.9
		l0.4,2.1c1.4-1.7,3-2.6,5.2-2.6C364.5,123.2,366.2,125.1,366.2,128.3z M387.4,138l-1,3c-1.9-0.2-3.2-0.8-3.9-2.5
		c-1.2,1.8-3.1,2.5-5.1,2.5c-3.4,0-5.5-2.2-5.5-5.2c0-3.7,2.8-5.7,7.8-5.7h1.9v-0.8c0-2.1-0.9-2.8-3-2.8c-1.1,0-2.7,0.3-4.5,0.9
		l-1-3c2.1-0.8,4.3-1.2,6.3-1.2c4.7,0,6.7,2.1,6.7,5.9v6.8C386.1,137.3,386.6,137.7,387.4,138z M381.7,135.9v-3.2h-1.5
		c-2.5,0-3.7,0.9-3.7,2.7c0,1.5,0.8,2.4,2.2,2.4C380,137.8,381,137.2,381.7,135.9z M404.1,139.8c-1.2,0.9-2.9,1.3-4.4,1.3
		c-3.5,0-5.3-2-5.3-5.8v-8.4h-2.5v-3.2h2.5V120l4.5-0.5v4.2h3.9l-0.4,3.2H399v8.3c0,1.7,0.5,2.3,1.7,2.3c0.6,0,1.2-0.2,1.9-0.6
		L404.1,139.8z M414.5,117.6c0,1.5-1.1,2.6-2.8,2.6s-2.7-1.2-2.7-2.6c0-1.5,1.1-2.6,2.7-2.6S414.5,116.1,414.5,117.6z M414,140.6
		h-4.5v-16.9h4.5V140.6z M436.4,132.1c0,5.4-3,9-8.1,9c-5,0-8.1-3.3-8.1-9c0-5.4,3-9,8.1-9C433.4,123.2,436.4,126.5,436.4,132.1z
		 M424.9,132.1c0,3.9,1.1,5.6,3.4,5.6s3.4-1.7,3.4-5.6c0-3.9-1.1-5.6-3.3-5.6C426,126.5,424.9,128.3,424.9,132.1z M456.1,128.3v12.3
		h-4.5V129c0-1.9-0.7-2.5-1.8-2.5c-1.3,0-2.3,0.9-3.3,2.4v11.7h-4.5v-16.9h3.9l0.4,2.1c1.4-1.7,3-2.6,5.2-2.6
		C454.3,123.2,456.1,125.1,456.1,128.3z M477.2,138l-1,3c-1.9-0.2-3.2-0.8-3.9-2.5c-1.2,1.8-3.1,2.5-5.1,2.5c-3.4,0-5.5-2.2-5.5-5.2
		c0-3.7,2.8-5.7,7.8-5.7h1.9v-0.8c0-2.1-0.9-2.8-3-2.8c-1.1,0-2.7,0.3-4.5,0.9l-1-3c2.1-0.8,4.3-1.2,6.3-1.2c4.7,0,6.7,2.1,6.7,5.9
		v6.8C476,137.3,476.4,137.7,477.2,138z M471.6,135.9v-3.2h-1.5c-2.5,0-3.7,0.9-3.7,2.7c0,1.5,0.8,2.4,2.2,2.4
		C469.9,137.8,470.9,137.2,471.6,135.9z M483.1,136.5v-19.6l4.5-0.5v19.9c0,0.7,0.3,1.1,0.9,1.1c0.3,0,0.6-0.1,0.9-0.2l0.9,3.2
		c-0.7,0.3-1.8,0.6-2.9,0.6C484.7,141.1,483.1,139.4,483.1,136.5z M133.2,161.1v23.6h-4l-0.3-2.1c-1,1.5-2.6,2.6-4.8,2.6
		c-4.2,0-6.4-3.6-6.4-9c0-5.2,2.6-9,6.9-9c1.6,0,3,0.7,4.1,1.7v-8.5L133.2,161.1z M128.7,179.8v-7.6c-0.8-1-1.7-1.6-2.9-1.6
		c-2,0-3.3,1.7-3.3,5.6c0,4.2,1.2,5.6,3.1,5.6C126.8,181.9,127.8,181.2,128.7,179.8z M155,177.7h-10.6c0.3,3.3,1.9,4.2,4,4.2
		c1.4,0,2.6-0.4,4.1-1.5l1.9,2.6c-1.7,1.3-3.8,2.3-6.4,2.3c-5.4,0-8.3-3.6-8.3-8.9c0-5.1,2.7-9.1,7.7-9.1c4.8,0,7.6,3.2,7.6,8.6
		C155.1,176.5,155,177.2,155,177.7z M150.6,174.6c0-2.6-0.9-4.2-3-4.2c-1.8,0-2.9,1.2-3.1,4.4h6.2V174.6z M189.6,166.1H182v6.3h6.6
		v3.4H182v9h-4.7v-22.1h12.8L189.6,166.1z M201.9,161.8c0,1.5-1.1,2.6-2.8,2.6c-1.6,0-2.7-1.2-2.7-2.6c0-1.5,1.1-2.6,2.7-2.6
		C200.7,159.1,201.9,160.3,201.9,161.8z M201.4,184.7h-4.5v-16.9h4.5V184.7z M209.5,180.7v-19.6l4.5-0.5v19.9c0,0.7,0.3,1.1,0.9,1.1
		c0.3,0,0.6-0.1,0.9-0.2l0.9,3.2c-0.7,0.3-1.8,0.6-2.9,0.6C211.1,185.2,209.5,183.6,209.5,180.7z M245.7,172.4v12.3h-4.5v-11.5
		c0-1.9-0.8-2.5-1.7-2.5c-1.2,0-2.1,0.9-2.9,2.4v11.7H232v-11.5c0-1.9-0.7-2.5-1.7-2.5c-1.2,0-2.1,0.9-2.9,2.4v11.7h-4.5v-16.9h3.9
		l0.4,2.1c1.2-1.7,2.8-2.6,4.9-2.6c1.9,0,3.4,1,4.1,2.8c1.3-1.8,2.8-2.8,5-2.8C243.9,167.3,245.7,169.2,245.7,172.4z M265.6,169.4
		l-1.7,2.6c-1.4-0.9-2.7-1.3-4.2-1.3c-1.5,0-2.3,0.6-2.3,1.5c0,1,0.6,1.4,3.5,2.3c3.4,0.9,5.3,2.3,5.3,5.3c0,3.5-3.3,5.5-7.3,5.5
		c-2.9,0-5.3-1-6.9-2.5l2.2-2.5c1.3,1,2.8,1.7,4.5,1.7c1.7,0,2.8-0.7,2.8-1.9c0-1.3-0.6-1.7-3.7-2.6c-3.4-1-5-2.6-5-5.2
		c0-2.9,2.6-5,6.7-5C261.9,167.3,264,168.1,265.6,169.4z M301.8,161.1v23.6h-4l-0.3-2.1c-1,1.5-2.6,2.6-4.8,2.6
		c-4.2,0-6.4-3.6-6.4-9c0-5.2,2.6-9,6.9-9c1.6,0,3,0.7,4.1,1.7v-8.5L301.8,161.1z M297.2,179.8v-7.6c-0.8-1-1.7-1.6-2.9-1.6
		c-2,0-3.3,1.7-3.3,5.6c0,4.2,1.2,5.6,3.1,5.6C295.4,181.9,296.4,181.2,297.2,179.8z M323.6,177.7H313c0.3,3.3,1.8,4.2,4,4.2
		c1.4,0,2.6-0.4,4.1-1.5l1.9,2.6c-1.7,1.3-3.8,2.3-6.4,2.3c-5.4,0-8.3-3.6-8.3-8.9c0-5.1,2.7-9.1,7.7-9.1c4.8,0,7.6,3.2,7.6,8.6
		C323.7,176.5,323.6,177.2,323.6,177.7z M319.2,174.6c0-2.6-0.9-4.2-3-4.2c-1.8,0-2.9,1.2-3.1,4.4h6.2V174.6z M358.2,166.1h-7.6v6.3
		h6.6v3.4h-6.6v9h-4.7v-22.1h12.8L358.2,166.1z M374.9,167.6l-0.8,4.4c-0.5-0.1-0.9-0.2-1.5-0.2c-2.1,0-3,1.5-3.6,4.3v8.7h-4.5
		v-16.9h3.9l0.4,3.3c0.8-2.4,2.4-3.8,4.4-3.8C373.9,167.4,374.4,167.4,374.9,167.6z M386,161.8c0,1.5-1.1,2.6-2.8,2.6
		s-2.7-1.2-2.7-2.6c0-1.5,1.1-2.6,2.7-2.6S386,160.3,386,161.8z M385.5,184.7H381v-16.9h4.5V184.7z M409.2,176.3c0,5.2-2.5,9-6.7,9
		c-1.9,0-3.4-0.8-4.4-2.2l-0.3,1.7h-4v-23.6l4.5-0.5v9.1c1.1-1.4,2.7-2.3,4.5-2.3C407,167.3,409.2,170.6,409.2,176.3z M404.5,176.3
		c0-4.4-1.2-5.6-3-5.6c-1.3,0-2.4,0.9-3.1,2.2v7.3c0.7,1.1,1.7,1.8,2.9,1.8C403.2,181.9,404.5,180.4,404.5,176.3z M431.1,176.3
		c0,5.4-3,9-8.1,9c-5,0-8.1-3.3-8.1-9c0-5.4,3-9,8.1-9C428.1,167.3,431.1,170.7,431.1,176.3z M419.7,176.3c0,3.9,1.1,5.6,3.4,5.6
		c2.2,0,3.4-1.7,3.4-5.6c0-3.9-1.1-5.6-3.3-5.6C420.8,170.7,419.7,172.4,419.7,176.3z M451.6,184.7h-3.9l-0.2-2.3
		c-1.2,1.9-2.9,2.8-5.1,2.8c-3.1,0-4.7-2-4.7-5.3v-12.2h4.5v11.6c0,1.8,0.6,2.5,1.8,2.5c1.2,0,2.3-0.8,3.1-2.2v-11.8h4.5V184.7z
		 M470.3,167.6l-0.8,4.4c-0.5-0.1-0.9-0.2-1.5-0.2c-2.1,0-3,1.5-3.6,4.3v8.7h-4.5v-16.9h3.9l0.4,3.3c0.8-2.4,2.4-3.8,4.4-3.8
		C469.2,167.4,469.7,167.4,470.3,167.6z M491.5,168.8c-1.2,0.5-2.8,0.6-4.9,0.6c2.1,0.9,3.1,2.2,3.1,4.3c0,3.3-2.6,5.7-7,5.7
		c-0.7,0-1.4-0.1-2-0.2c-0.4,0.3-0.6,0.7-0.6,1.1c0,0.6,0.3,1.1,1.9,1.1h2.6c3.8,0,6.3,2,6.3,4.8c0,3.4-3,5.5-8.6,5.5
		c-6.2,0-7.9-2-7.9-5.4h4.1c0,1.6,0.7,2.3,3.9,2.3c3.1,0,4-0.9,4-2.1c0-1.1-0.9-1.8-2.6-1.8h-2.5c-3.5,0-5-1.5-5-3.3
		c0-1.2,0.8-2.4,2-3.2c-2.1-1.1-3-2.6-3-4.8c0-3.7,3-6.1,7.2-6.1c3.9,0.1,5.9-0.9,7.9-2L491.5,168.8z M479.8,173.4
		c0,1.9,1.1,3.1,2.8,3.1c1.8,0,2.8-1.1,2.8-3.2c0-2-0.9-3-2.8-3C480.8,170.4,479.8,171.5,479.8,173.4z"/>
	<path id="Pictogramme" d="M63.9,12.2L63.8,12l-4.2,4.2l7.8,7.8l-3.7,3.7l-7.8-7.8l-3.9,3.8l-4.4-4.4L63.8,3.2l16.1,16.1l-4.4,4.4
		L63.9,12.2z M24.1,51.7l-4.4-4.4L3.6,63.4l16.1,16.1l4.4-4.4l-3.8-3.9l7.8-7.8l-3.7-3.7l-7.8,7.8l-4.2-4.2l0.2-0.2L24.1,51.7z
		 M52.1,103l-4.4,4.4l16.1,16.1l16.1-16.1l-4.4-4.4l-3.9,3.8L63.8,99l-3.7,3.7l7.8,7.8l-4.2,4.2l-0.2-0.2L52.1,103z M118.8,68.1
		l4.8-4.8l-4.7-4.7l-4.8,4.8L118.8,68.1z M115,72l-7.8,7.8l-4.8-4.8l1.1-1.1l6.7-6.7L115,72z M102.4,51.7l4.8-4.8l7.8,7.8l-4.8,4.8
		L102.4,51.7z"/>
</g>
</svg>
